<svg xmlns="http://www.w3.org/2000/svg" viewBox="0 0 24 24" fill="#c4b090">
  <path d="M11.979 0C5.678 0 .511 4.86.022 11.037l6.432 2.658a3.12 3.12 0 0 1 1.762-.556c.063 0 .125.004.188.006l2.861-4.142V8.4c0-2.495 2.028-4.522 4.522-4.522s4.522 2.027 4.522 4.522-2.028 4.522-4.522 4.522h-.105l-4.076 2.911c0 .052.004.105.004.159 0 1.875-1.515 3.396-3.387 3.396-1.635 0-3.016-1.173-3.331-2.727L.436 15.27C1.671 20.867 6.485 24 11.979 24c6.627 0 11.999-5.373 11.999-12S18.606 0 11.979 0zM7.54 18.21l-1.473-.61a2.708 2.708 0 0 0 2.657 2.121c1.5 0 2.709-1.208 2.709-2.71 0-1.502-1.209-2.71-2.709-2.71-.925 0-1.74.463-2.228 1.17l1.444.598a1.306 1.306 0 0 1 1.37-.98c.72 0 1.306.586 1.306 1.306s-.586 1.306-1.306 1.306a1.314 1.314 0 0 1-1.27-.921z"/>
</svg>
